<svg xmlns="http://www.w3.org/2000/svg" version="1.1" xmlns:xlink="http://www.w3.org/1999/xlink" width="1000" height="1000"><g clip-path="url(#SvgjsClipPath1345)"><rect width="1000" height="1000" fill="#ffffff"></rect><g transform="matrix(33.333333333333336,0,0,33.333333333333336,100,100)"><svg xmlns="http://www.w3.org/2000/svg" version="1.1" xmlns:xlink="http://www.w3.org/1999/xlink" width="24" height="24"><svg xmlns="http://www.w3.org/2000/svg" width="24" height="24" viewBox="0 0 24 24"><g fill="none" fill-rule="evenodd"><path d="m12.593 23.258l-.011.002l-.071.035l-.02.004l-.014-.004l-.071-.035q-.016-.005-.024.005l-.004.01l-.017.428l.005.02l.01.013l.104.074l.015.004l.012-.004l.104-.074l.012-.016l.004-.017l-.017-.427q-.004-.016-.017-.018m.265-.113l-.013.002l-.185.093l-.01.01l-.003.011l.018.43l.005.012l.008.007l.201.093q.019.005.029-.008l.004-.014l-.034-.614q-.005-.018-.02-.022m-.715.002a.02.02 0 0 0-.027.006l-.006.014l-.034.614q.001.018.017.024l.015-.002l.201-.093l.01-.008l.004-.011l.017-.43l-.003-.012l-.01-.01z"></path><path fill="currentColor" d="m14.112 3.744l7.444 3.761a1.51 1.51 0 0 1 .763 1.775c-.39 1.331-.347 1.89-.092 2.521c.257.638.079 1.449-.587 1.87l-10.284 6.51c-.431.273-.98.315-1.457.082l-3.84-1.895l-1.604-.805l-1.14-.582l-.696-.365l-.36-.196l-.261-.15C.978 15.655.66 14.405.666 13.45c.004-.971.338-2.184 1.265-2.85l.3-.207l.858-.561l2.045-1.306l7.508-4.715a1.5 1.5 0 0 1 1.47-.066Zm5.921 6.944l-8.673 5.49l-.108.063l-.111.052c-.11.408-.148.701-.144.973c.002.162.02.328.055.517l.042.197l9.148-5.79l-.072-.249a4.3 4.3 0 0 1-.138-.996zM2.8 12.678a2.3 2.3 0 0 0-.134.78c-.003.672.237 1.023.365 1.1l.308.175l.626.333l1.77.903L9.01 17.6a5 5 0 0 1-.014-.303a5 5 0 0 1 .114-1.113l.067-.288zm11.164-5.764a1 1 0 0 0-1.028 1.712l.1.06l2.1 1.1a1 1 0 0 0 1.028-1.712l-.1-.06z"></path></g></svg></svg></g></g><defs><clipPath id="SvgjsClipPath1345"><rect width="1000" height="1000" x="0" y="0" rx="300" ry="300"></rect></clipPath></defs></svg>